# xmcd
#
# Track frame offsets: 
#        150
#        19737
#        36542
#        58470
#        79207
#        101653
#        118371
#        138119
#        157578
#        179992
#        197625
#
# Disc length: 2927 seconds
#
# Revision: 3
# Processed by: cddbd v1.5.2PL0 Copyright (c) Steve Scherf et al.
# Submitted via: ExactAudioCopyFreeDBPlugin 1.0
#
DISCID=9f0b6d0b
DTITLE=David Nail - The Sound Of A Million Dreams
DYEAR=2011
DGENRE=Country
TTITLE0=Grandpa's Farm
TTITLE1=David Nail feat. Lee Ann Womack - Songs For Sale
TTITLE2=David Nail  - Desiree
TTITLE3=She Rides Away
TTITLE4=David Nail feat. Sarah Buxton - Let It Rain
TTITLE5=I Thought You Knew
TTITLE6=Catch You While I Can
TTITLE7=Half Mile Hill
TTITLE8=That's How I'll Remember You
TTITLE9=The Sound Of A Million Dreams
TTITLE10=David Nail feat. Will Hoge - Catherine
EXTD=YEAR: 2011
EXTT0=
EXTT1=
EXTT2=
EXTT3=
EXTT4=
EXTT5=
EXTT6=
EXTT7=
EXTT8=
EXTT9=
EXTT10=
PLAYORDER=
